<svg width="70" height="70" viewBox="0 0 70 70" fill="none" xmlns="http://www.w3.org/2000/svg">
<circle cx="35" cy="35" r="34.5" transform="rotate(-180 35 35)" stroke="#84C551"/>
<g clip-path="url(#clip0_21947_9869)">
<path d="M26.2021 36.4039C26.284 36.4172 26.3668 36.4233 26.4496 36.4222H40.5592L40.2516 36.5653C39.9508 36.7077 39.6772 36.9014 39.4431 37.1377L35.4864 41.0944C34.9653 41.5919 34.8777 42.3921 35.2789 42.9905C35.7458 43.6281 36.6412 43.7666 37.2789 43.2997C37.3304 43.2619 37.3793 43.2208 37.4254 43.1765L44.5803 36.0216C45.1395 35.463 45.14 34.557 44.5814 33.9978C44.5811 33.9975 44.5807 33.9971 44.5803 33.9967L37.4254 26.8418C36.8658 26.2837 35.9597 26.285 35.4016 26.8446C35.3577 26.8886 35.3167 26.9355 35.2789 26.9849C34.8777 27.5832 34.9653 28.3835 35.4864 28.8809L39.4359 32.8448C39.6459 33.0549 39.8872 33.2312 40.1514 33.3671L40.5807 33.5603H26.5284C25.7974 33.5331 25.156 34.0437 25.0187 34.7623C24.8922 35.5424 25.422 36.2773 26.2021 36.4039Z" fill="#84BE51"/>
</g>
<defs>
<clipPath id="clip0_21947_9869">
<rect width="20" height="20" fill="white" transform="matrix(-1 0 0 -1 45 45)"/>
</clipPath>
</defs>
</svg>
