<svg width="40" height="40" viewBox="0 0 40 40" fill="none" xmlns="http://www.w3.org/2000/svg">
<path d="M20 14.2694C19.108 13.3624 17.8949 12.85 16.6094 12.85C13.9849 12.85 11.85 14.9849 11.85 17.6094C11.85 19.1564 12.4281 20.7535 13.5523 22.3548L13.5523 22.3548C13.6743 22.5285 13.914 22.5705 14.0878 22.4485C14.0878 22.4485 14.0878 22.4485 14.0878 22.4485L14.0016 22.3258C14.1075 22.2514 14.1331 22.1052 14.0587 21.9993C13.0037 20.4965 12.4687 19.0195 12.4687 17.6094C12.4687 15.3262 14.3262 13.4688 16.6094 13.4688C17.858 13.4688 19.0277 14.0243 19.8184 14.9929C19.863 15.0474 19.9296 15.0791 20 15.0791C20.0704 15.0791 20.1371 15.0474 20.1816 14.9929C20.9723 14.0243 22.142 13.4688 23.3906 13.4688C25.6738 13.4688 27.5312 15.3265 27.5312 17.6099L20 14.2694ZM20 14.2694C20.892 13.3624 22.1051 12.85 23.3906 12.85C26.0151 12.85 28.15 14.9852 28.15 17.61C28.1497 18.9426 27.719 20.3174 26.8801 21.695C26.2163 22.785 25.2951 23.8817 24.1447 24.9553C22.1944 26.7753 20.2164 27.9282 20.1926 27.942L20.1926 27.942C20.133 27.9765 20.0664 27.9938 20 27.9938C19.9351 27.9938 19.8701 27.9773 19.8116 27.9444M20 14.2694L27.3812 17.6099C27.381 18.9511 26.8778 20.2402 26.1531 21.4004C25.4287 22.5601 24.4882 23.5825 23.6268 24.3871C22.0891 25.8233 20.5322 26.8314 19.9989 27.1608C19.9457 27.1297 19.8853 27.095 19.8182 27.0565C19.0217 26.5998 17.2839 25.6035 15.5314 23.4403C15.3977 23.2753 15.1556 23.2501 14.9907 23.3836L14.9907 23.3836C14.8258 23.5173 14.8004 23.7593 14.9341 23.9243M14.9341 23.9243C14.9341 23.9243 14.934 23.9242 14.934 23.9242L15.0506 23.8298L14.9341 23.9243ZM14.9341 23.9243C16.0931 25.3547 17.3039 26.3548 18.2298 27C18.6928 27.3227 19.0848 27.5567 19.3638 27.7117C19.5034 27.7892 19.6146 27.8469 19.6924 27.8859C19.7312 27.9054 19.7616 27.9203 19.7829 27.9305L19.8072 27.9423C19.8093 27.9433 19.8107 27.9439 19.8116 27.9444M19.8116 27.9444C19.8134 27.9453 19.8134 27.9453 19.8125 27.9448C19.8116 27.9443 19.8096 27.9433 19.8075 27.942L19.8826 27.8122L19.8074 27.942C19.8088 27.9428 19.8102 27.9436 19.8116 27.9444ZM23.3906 13.6188C25.5909 13.6188 27.3812 15.4093 27.3812 17.6099L20.2978 15.0878C21.0601 14.1539 22.1871 13.6188 23.3906 13.6188Z" fill="white" stroke="#8C3213" stroke-width="0.3"/>
<circle cx="20" cy="20" r="19.5" stroke="#8C3213"/>
</svg>
