<svg width="40" height="40" viewBox="0 0 40 40" fill="none" xmlns="http://www.w3.org/2000/svg">
<circle cx="20" cy="20" r="19.5" stroke="#8C3213"/>
<path d="M27.9331 20.7672L25.2374 16.2741L27.6566 15.6021C27.9061 15.5328 28.0521 15.2745 27.9828 15.025C27.9135 14.7756 27.6551 14.6295 27.4057 14.6988L24.3985 15.5342C24.3983 15.5342 24.3981 15.5343 24.3978 15.5343L20.4688 16.6257V11.4688C20.4688 11.2099 20.2589 11 20 11C19.7411 11 19.5313 11.2099 19.5313 11.4688V16.8861L15.3612 18.0444C15.361 18.0445 15.3607 18.0446 15.3605 18.0446L12.3434 18.8827C12.094 18.9519 11.948 19.2103 12.0172 19.4598C12.0749 19.6672 12.2633 19.8032 12.4686 19.8032C12.5101 19.8032 12.5524 19.7976 12.5943 19.7859L14.4751 19.2635L12.067 23.2775C12.0233 23.3504 12.0002 23.4338 12.0002 23.5187C12.0002 25.4382 13.5618 26.9998 15.4813 26.9998C17.4009 26.9998 18.9625 25.4382 18.9625 23.5187C18.9625 23.4338 18.9394 23.3504 18.8957 23.2775L16.2 18.7844L23.5124 16.7533L21.1043 20.7672C21.0606 20.8401 21.0375 20.9234 21.0375 21.0084C21.0375 22.9279 22.5991 24.4895 24.5186 24.4895C25.4485 24.4895 26.3227 24.1274 26.9802 23.4698C27.6378 22.8123 27.9999 21.9382 27.9998 21.0083C27.9999 20.9234 27.9768 20.84 27.9331 20.7672ZM15.4813 26.0623C14.2389 26.0623 13.2022 25.1667 12.9815 23.9874H17.9812C17.7605 25.1667 16.7238 26.0623 15.4813 26.0623ZM17.666 23.0499H13.2968L15.4813 19.4087L17.666 23.0499ZM24.5186 16.8984L26.7033 20.5396H22.3341L24.5186 16.8984ZM24.5187 23.552C23.2763 23.552 22.2395 22.6564 22.0188 21.4771H27.0186C26.7979 22.6564 25.7611 23.552 24.5187 23.552Z" fill="#8C3213"/>
</svg>
