<svg width="24" height="24" viewBox="0 0 24 24" fill="none" xmlns="http://www.w3.org/2000/svg">
<g clip-path="url(#clip0_25_913)">
<path d="M19.8474 17.1046L19.8474 17.1046C20.019 17.2855 20.0115 17.5713 19.8306 17.7429L19.765 17.6738L19.8306 17.743C18.1117 19.3739 16.1729 20.7797 14.7676 21.4091C13.849 21.8208 12.8734 22.0275 11.8953 22.0275C11.0796 22.0275 10.2626 21.8833 9.47582 21.595C8.68641 21.9023 7.8284 22.0711 6.93183 22.0711C3.05436 22.0711 -0.1 18.9167 -0.1 15.0393C-0.1 13.0311 0.709886 9.79571 1.86548 7.16534C2.52923 5.65451 3.25692 4.43724 4.03013 3.55052C4.95866 2.4857 5.93472 1.92887 6.93183 1.92887C8.28035 1.92887 9.57095 2.92804 10.7745 4.82971L10.69 4.88318L10.7745 4.82971C10.9079 5.04044 10.8451 5.31939 10.6344 5.45275M19.8474 17.1046L13.1219 14.264L13.0223 14.273C13.0477 14.5541 13.0605 14.8118 13.0605 15.0393C13.0605 18.4186 10.3111 21.168 6.93183 21.168C3.55248 21.1679 0.803125 18.4186 0.803125 15.0393C0.803125 13.1855 1.59599 10.0241 2.69227 7.52867C3.35372 6.02314 4.07513 4.84454 4.80403 4.04405C5.53479 3.24152 6.2607 2.83204 6.93178 2.83204C7.54254 2.83204 8.12799 3.15712 8.65797 3.63738C9.18672 4.11652 9.64887 4.73994 10.0113 5.31269L10.094 5.26036L10.0113 5.3127C10.1447 5.52342 10.4237 5.58623 10.6344 5.45275M19.8474 17.1046C19.6756 16.9236 19.3899 16.9161 19.2089 17.0878M19.8474 17.1046L19.2089 17.0878M10.6344 5.45275L10.5809 5.36825L10.6344 5.45271C10.6344 5.45272 10.6344 5.45273 10.6344 5.45275ZM19.2089 17.0878C17.5771 18.6361 15.6873 20.0078 14.3983 20.5849L14.3983 20.5849C13.2097 21.1176 11.9131 21.2563 10.6627 20.9973M19.2089 17.0878L12.0759 19.6807C14.9105 19.3197 16.946 17.2751 17.0313 17.1882L17.1026 17.2582C17.0152 17.3473 14.9762 19.3968 12.1251 19.7751M10.6627 20.9973C11.2041 20.6571 11.6959 20.2453 12.1251 19.7751M10.6627 20.9973C10.6158 20.9876 10.569 20.9773 10.5223 20.9665L14.4392 20.6762C13.1988 21.232 11.8421 21.3658 10.5395 21.073C10.5808 21.0482 10.6219 21.0229 10.6627 20.9973ZM12.1251 19.7751C12.1129 19.7768 12.1007 19.7783 12.0886 19.7799L12.0759 19.7815L12.0759 19.7807H12.0759H12.0759H12.0759H12.0759H12.0759H12.0759H12.0758H12.0758H12.0758H12.0758H12.0758H12.0758H12.0758V19.6807L12.0759 19.6809L12.076 19.6809L12.15 19.7477C12.1417 19.7569 12.1334 19.766 12.1251 19.7751ZM12.9443 18.6817C12.8973 18.6952 12.85 18.7083 12.8024 18.721C12.7762 18.7625 12.7497 18.8037 12.7227 18.8447C12.7707 18.8327 12.8185 18.8203 12.866 18.8074C12.8925 18.7658 12.9186 18.7239 12.9443 18.6817Z" fill="#84BE51" stroke="#84BE51" stroke-width="0.2"/>
<path d="M11.5417 6.19443L11.5417 6.19445C11.7708 6.65009 11.9916 7.13665 12.2005 7.643C14.4284 7.20398 16.8827 7.04475 18.8427 7.21859C21.4893 7.45327 23.2473 8.27162 23.8564 9.6311M11.5417 6.19443L20.8093 16.6174L20.8823 16.6857C21.6511 15.865 22.6468 14.6789 23.3251 13.4147C24.001 12.1551 24.3761 10.7907 23.8564 9.6311M11.5417 6.19443C11.4296 5.97166 11.1583 5.88179 10.9354 5.99388L11.5417 6.19443ZM23.8564 9.6311L23.7652 9.67198L23.8564 9.63109C23.8564 9.63109 23.8564 9.63109 23.8564 9.6311ZM12.9176 12.832L12.8193 12.8504C12.4284 10.7549 11.6487 8.41742 10.7348 6.60015C10.6228 6.37739 10.7125 6.10591 10.9354 5.9939L12.9176 12.832ZM12.9176 12.832L12.8193 12.8504C12.8599 13.0676 13.0495 13.2192 13.2628 13.2192M12.9176 12.832L13.2628 13.2192M13.7072 12.6848L13.7072 12.6848C13.7529 12.9299 13.5912 13.1657 13.3461 13.2115L13.7072 12.6848ZM13.7072 12.6848C13.5919 12.0668 13.4439 11.429 13.2696 10.7891M13.7072 12.6848L13.2696 10.7891M23.0323 10.0003L23.0323 10.0003C22.7487 9.36744 22.105 8.93185 21.3083 8.6358C20.5141 8.34065 19.5861 8.1911 18.763 8.11812C16.9335 7.95594 14.6413 8.09766 12.5347 8.49798C12.7074 8.96375 12.8691 9.44046 13.0174 9.92063C16.9808 8.54713 19.884 9.20084 20.0207 9.23312L23.0323 10.0003ZM23.0323 10.0003C23.3192 10.6406 23.2266 11.5096 22.7492 12.5527M23.0323 10.0003L22.7492 12.5527M13.2628 13.2192C13.2902 13.2192 13.3181 13.2167 13.3461 13.2115L13.2628 13.2192ZM13.2696 10.7891C15.1239 10.1416 16.7447 9.96891 17.9099 9.95989C18.5016 9.9553 18.9757 9.99293 19.3029 10.032C19.4665 10.0515 19.5934 10.0713 19.6799 10.0864C19.7232 10.094 19.7563 10.1004 19.7789 10.1049L19.8048 10.1102L19.8116 10.1117C19.8133 10.1121 19.8141 10.1123 19.8141 10.1123L19.8365 10.0148L19.8136 10.1121C20.0563 10.1695 20.2995 10.0189 20.3567 9.7762C20.4139 9.53344 20.2634 9.29035 20.0207 9.23313L13.2696 10.7891ZM22.7492 12.5527C22.273 13.5931 21.4216 14.789 20.2232 16.0683L22.7492 12.5527Z" fill="#84BE51" stroke="#84BE51" stroke-width="0.2"/>
<path d="M18.4885 12.8792L18.4885 12.8792C18.7123 12.7692 18.9829 12.8615 19.0929 13.0854C19.0929 13.0854 19.0929 13.0854 19.0929 13.0854L18.4885 12.8792ZM18.4885 12.8792L14.3976 14.8898L14.3976 14.8898C14.1738 14.9998 14.0815 15.2704 14.1915 15.4942M18.4885 12.8792L14.1915 15.4942M14.1915 15.4942C14.1915 15.4942 14.1915 15.4942 14.1915 15.4942L14.2812 15.4501C14.3424 15.5745 14.4672 15.6467 14.597 15.6467C14.6491 15.6467 14.7019 15.6351 14.7518 15.6106L14.1915 15.4942Z" fill="#84BE51" stroke="#84BE51" stroke-width="0.2"/>
<path d="M5.6382 5.75387L5.71773 5.81448C5.86874 5.61633 5.83075 5.3333 5.63278 5.18199L5.63278 5.18199L3.51068 17.4552V17.3552L3.51071 17.4552C3.53993 17.4552 3.56958 17.4524 3.59933 17.4465M5.6382 5.75387L5.71786 5.81432C5.71786 5.81431 5.7147 5.81851 5.70854 5.82696C5.70245 5.83531 5.69353 5.84771 5.682 5.86409C5.65895 5.89684 5.6255 5.94553 5.58354 6.00974C5.49963 6.13817 5.38171 6.32867 5.24487 6.578C4.97116 7.0767 4.62187 7.81051 4.31751 8.75359C3.75672 10.4913 3.23706 13.3198 3.95389 16.9153C4.00266 17.1599 3.84389 17.3977 3.59933 17.4465M5.6382 5.75387C5.63023 5.76437 4.83546 6.82308 4.22234 8.72288L3.56417 8.47313C4.21587 6.47016 5.04429 5.37301 5.07926 5.32726C5.19715 5.17308 5.41779 5.14355 5.57206 5.26144C5.72618 5.37924 5.75576 5.5996 5.6382 5.75387ZM3.59933 17.4465L3.57978 17.3484L3.59939 17.4465C3.59937 17.4465 3.59935 17.4465 3.59933 17.4465Z" fill="#84BE51" stroke="#84BE51" stroke-width="0.2"/>
<path d="M10.5454 10.9554L10.5455 10.9554C10.7774 10.8648 11.0391 10.9789 11.1301 11.211L10.5454 10.9554ZM10.5454 10.9554C10.3133 11.0461 10.1986 11.3079 10.289 11.54M10.5454 10.9554L10.289 11.54M10.289 11.54C10.289 11.54 10.289 11.5401 10.2891 11.5401L10.289 11.54Z" fill="#84BE51" stroke="#84BE51" stroke-width="0.2"/>
<path d="M8.13707 7.68839L8.13707 7.68839L8.13632 7.68841C7.8871 7.69727 7.69222 7.90649 7.70107 8.15574L7.70107 8.15575L7.86302 12.7112L7.86302 12.7112C7.87175 12.955 8.07204 13.1467 8.3141 13.1467C8.31976 13.1467 8.3252 13.1466 8.33014 13.1465L8.33035 13.1464C8.57956 13.1376 8.77445 12.9284 8.7656 12.6791L8.7656 12.6791L8.60365 8.12366C8.60365 8.12366 8.60365 8.12366 8.60365 8.12366C8.59477 7.87376 8.38543 7.68144 8.13707 7.68839Z" fill="#84BE51" stroke="#84BE51" stroke-width="0.2"/>
<path d="M4.54913 18.4054L4.54916 18.4054C4.54914 18.4054 4.54985 18.4062 4.55139 18.4078L4.55768 18.4146L4.58126 18.4393C4.60171 18.4605 4.63142 18.4907 4.66932 18.5276C4.74515 18.6013 4.85352 18.7017 4.98588 18.8105C5.25182 19.0292 5.60933 19.2776 5.99091 19.4165C6.22523 19.5017 6.34615 19.7608 6.26082 19.9952M4.54913 18.4054L6.16686 19.961M4.54913 18.4054C4.38195 18.2207 4.09659 18.2062 3.91159 18.3734L4.54913 18.4054ZM6.26082 19.9952L6.16686 19.961M6.26082 19.9952C6.26083 19.9952 6.26083 19.9951 6.26083 19.9951L6.16686 19.961M6.26082 19.9952C6.19405 20.1787 6.02081 20.2924 5.83648 20.2924C5.78515 20.2924 5.73301 20.2837 5.68211 20.2651M6.16686 19.961C6.11492 20.1037 5.98011 20.1924 5.83648 20.1924C5.79655 20.1924 5.756 20.1856 5.7163 20.1711M5.68211 20.2651L5.7163 20.1711M5.68211 20.2651C4.69415 19.9057 3.91288 19.0484 3.87932 19.0112L5.7163 20.1711M5.68211 20.2651C5.68208 20.2651 5.68205 20.2651 5.68202 20.2651L5.7163 20.1711M3.91158 18.3734C3.72658 18.5406 3.71213 18.8261 3.87929 19.0112L3.91158 18.3734Z" fill="#84BE51" stroke="#84BE51" stroke-width="0.2"/>
<path d="M8.5127 13.6461C8.26332 13.6461 8.06113 13.8482 8.06113 14.0977V14.1296C8.06113 14.379 8.26332 14.5811 8.5127 14.5811C8.76207 14.5811 8.96426 14.379 8.96426 14.1296V14.0977C8.96426 13.8482 8.76207 13.6461 8.5127 13.6461Z" fill="#84BE51" stroke="#84BE51" stroke-width="0.2"/>
<path d="M7.64648 14.5724C7.39711 14.5724 7.19492 14.7745 7.19492 15.0239V15.0558C7.19492 15.3053 7.39711 15.5074 7.64648 15.5074C7.89586 15.5074 8.09805 15.3053 8.09805 15.0558V15.0239C8.09805 14.7745 7.89592 14.5724 7.64648 14.5724Z" fill="#84BE51" stroke="#84BE51" stroke-width="0.2"/>
<path d="M8.76465 16.147C8.51527 16.147 8.31309 16.3491 8.31309 16.5986V16.6305C8.31309 16.8799 8.51526 17.0821 8.76465 17.0821C9.01402 17.0821 9.21621 16.8799 9.21621 16.6305V16.5986C9.21621 16.3491 9.01402 16.147 8.76465 16.147Z" fill="#84BE51" stroke="#84BE51" stroke-width="0.2"/>
</g>
<defs>
<clipPath id="clip0_25_913">
<rect width="24" height="24" fill="white"/>
</clipPath>
</defs>
</svg>
