<svg width="40" height="40" viewBox="0 0 40 40" fill="none" xmlns="http://www.w3.org/2000/svg">
<path d="M24.1978 26.5454L22.0044 22.6763C21.9876 22.6514 21.9762 22.6233 21.9708 22.5938C21.9654 22.5643 21.9662 22.5339 21.9731 22.5047C21.9799 22.4755 21.9928 22.448 22.0107 22.424C22.0287 22.3999 22.0514 22.3798 22.0775 22.365C22.1036 22.3501 22.1325 22.3408 22.1623 22.3377C22.1922 22.3345 22.2224 22.3375 22.251 22.3465C22.2796 22.3555 22.3061 22.3703 22.3287 22.3901C22.3514 22.4098 22.3697 22.4339 22.3826 22.461L24.576 26.3301L24.1978 26.5454Z" fill="#8C3213"/>
<path d="M19.1682 17.4547C19.1298 17.4543 19.0921 17.4438 19.059 17.4245C19.0258 17.4051 18.9983 17.3774 18.9791 17.3441L16.7856 13.4779L17.1638 13.2598L19.3573 17.1289C19.3846 17.1783 19.3914 17.2366 19.3761 17.291C19.3609 17.3454 19.3249 17.3917 19.2758 17.4198C19.2433 17.4399 19.2063 17.4518 19.1682 17.4547V17.4547Z" fill="#8C3213"/>
<path d="M22.0537 27.1972C21.7316 27.2027 21.41 27.1676 21.0967 27.0925C17.9694 26.2285 13.8617 18.9819 14.7257 15.8576C15.119 14.7505 15.8731 13.8079 16.8668 13.1812C17.0588 13.0678 17.2537 12.9659 17.4487 12.8728C17.6275 12.7914 17.8304 12.78 18.0173 12.8408C18.2042 12.9017 18.3615 13.0304 18.4581 13.2016L20.1017 16.1107C20.1563 16.206 20.1902 16.3117 20.2012 16.4209C20.2123 16.5302 20.2002 16.6406 20.1657 16.7448C20.1307 16.8494 20.0743 16.9455 20.0002 17.0271C19.9261 17.1087 19.8359 17.1741 19.7352 17.219C19.5752 17.2888 19.4181 17.3616 19.2668 17.4401C18.6065 17.7718 18.2283 18.0714 18.141 18.3332C17.9403 18.9558 18.1788 20.0088 18.749 21.0154C19.3192 22.0219 20.0872 22.7608 20.7301 22.8976C20.9192 22.9412 21.3119 22.8976 22.0741 22.3943C22.2196 22.3041 22.365 22.2052 22.5076 22.1034C22.5971 22.0399 22.699 21.9959 22.8067 21.9742C22.9143 21.9525 23.0253 21.9536 23.1325 21.9774C23.2397 22.0013 23.3407 22.0473 23.4289 22.1126C23.5172 22.1779 23.5908 22.261 23.645 22.3565L25.2916 25.2656C25.3899 25.4366 25.4203 25.6384 25.3766 25.8309C25.333 26.0233 25.2185 26.1923 25.0559 26.3041C24.8785 26.4205 24.6894 26.5368 24.4916 26.6445C23.7355 27.0228 22.8991 27.2125 22.0537 27.1972V27.1972ZM17.7716 13.2336C17.7233 13.2345 17.6758 13.2454 17.6319 13.2656C17.4516 13.3499 17.2683 13.4488 17.0879 13.5565C16.1925 14.126 15.5095 14.9745 15.1447 15.971C14.7781 17.3005 15.421 19.7121 16.7825 22.1121C18.1439 24.5121 19.8836 26.3041 21.213 26.6736C22.2543 26.8734 23.3324 26.7263 24.2821 26.2547C24.4683 26.1528 24.6457 26.0452 24.8116 25.9347C24.8828 25.8846 24.9328 25.8096 24.9516 25.7246C24.9705 25.6395 24.9568 25.5505 24.9134 25.475L23.2668 22.5659C23.2427 22.5237 23.2101 22.4868 23.1711 22.4578C23.132 22.4287 23.0874 22.4081 23.0399 22.3972C22.9901 22.3857 22.9384 22.385 22.8882 22.395C22.8381 22.405 22.7906 22.4256 22.749 22.4554C22.6007 22.5601 22.4581 22.6619 22.301 22.7463C21.5621 23.2234 21.0297 23.4008 20.6254 23.3107C19.8545 23.1361 19.0079 22.3536 18.3621 21.2161C17.8588 20.3434 17.4283 19.075 17.7192 18.1848C17.8443 17.7979 18.2719 17.4314 19.0603 17.0212C19.2174 16.9398 19.3832 16.8641 19.549 16.7914C19.5944 16.7713 19.6351 16.7421 19.6686 16.7055C19.7021 16.669 19.7278 16.6259 19.7439 16.579C19.76 16.5313 19.7657 16.4806 19.7607 16.4304C19.7557 16.3803 19.7401 16.3318 19.7148 16.2881L18.0683 13.379C18.0342 13.3329 17.9893 13.2958 17.9376 13.2709C17.8859 13.2461 17.8289 13.2343 17.7716 13.2365V13.2336Z" fill="#8C3213"/>
<circle cx="20" cy="20" r="19.5" stroke="#8C3213"/>
</svg>
